<svg viewBox="0 0 21 26" fill="none" xmlns="http://www.w3.org/2000/svg">
    <path d="M5.86497 0.0219366C5.79795 0.0341227 5.7289 0.0463089 5.67001 0.0869224C5.43241 0.247354 5.37961 0.580409 5.54004 0.818012L6.66104 2.4914C4.92877 3.40932 3.63717 4.93446 3.2168 6.76421H17.5787C17.1583 4.93446 15.8667 3.40932 14.1344 2.4914L15.2554 0.818012C15.4158 0.580409 15.363 0.247354 15.1254 0.0869224C14.8858 -0.0735093 14.5548 -0.00446323 14.3943 0.23314L13.1596 2.05274C12.3026 1.74 11.3725 1.56535 10.3977 1.56535C9.42294 1.56535 8.49283 1.74 7.63583 2.05274L6.4011 0.23314C6.28128 0.0544295 6.06398 -0.0166494 5.86497 0.0219366ZM7.53835 4.16478C7.96888 4.16478 8.31818 4.51408 8.31818 4.94461C8.31818 5.37717 7.96888 5.72444 7.53835 5.72444C7.10579 5.72444 6.75852 5.37717 6.75852 4.94461C6.75852 4.51408 7.10579 4.16478 7.53835 4.16478ZM13.2571 4.16478C13.6897 4.16478 14.0369 4.51408 14.0369 4.94461C14.0369 5.37717 13.6897 5.72444 13.2571 5.72444C12.8266 5.72444 12.4773 5.37717 12.4773 4.94461C12.4773 4.51408 12.8266 4.16478 13.2571 4.16478ZM1.55966 7.80398C0.698597 7.80398 0 8.50258 0 9.36364V16.642C0 17.5031 0.698597 18.2017 1.55966 18.2017C1.74243 18.2017 1.91708 18.1631 2.07954 18.1042V7.90146C1.91708 7.84257 1.74243 7.80398 1.55966 7.80398ZM3.11932 7.80398V19.2415C3.11932 20.1005 3.81995 20.8011 4.67898 20.8011H16.1165C16.9755 20.8011 17.6761 20.1005 17.6761 19.2415V7.80398H3.11932ZM19.2358 7.80398C19.053 7.80398 18.8784 7.84257 18.7159 7.90146V18.1042C18.8784 18.1611 19.053 18.2017 19.2358 18.2017C20.0969 18.2017 20.7954 17.5031 20.7954 16.642V9.36364C20.7954 8.50258 20.0969 7.80398 19.2358 7.80398ZM5.19886 21.8409V23.9205C5.19886 25.0679 6.131 26 7.27841 26C8.42581 26 9.35795 25.0679 9.35795 23.9205V21.8409H5.19886ZM11.4375 21.8409V23.9205C11.4375 25.0679 12.3696 26 13.517 26C14.6644 26 15.5966 25.0679 15.5966 23.9205V21.8409H11.4375Z"
          fill="#F3F5FF"/>
</svg>
