<svg viewBox="0 0 28 28" fill="none" xmlns="http://www.w3.org/2000/svg">
    <path d="M23.8597 9.13267C23.7449 9.20454 21.0121 10.7212 21.0121 14.084C21.1409 17.9191 24.4608 19.264 24.5177 19.264C24.4608 19.3359 24.0165 21.0961 22.7005 22.9413C21.6561 24.5308 20.4969 26.1333 18.7367 26.1333C17.0623 26.1333 16.4612 25.074 14.5292 25.074C12.4544 25.074 11.8673 26.1333 10.2788 26.1333C8.51855 26.1333 7.27348 24.4449 6.17215 22.8704C4.74135 20.8096 3.52521 17.5756 3.48228 14.4704C3.45335 12.8249 3.76881 11.2075 4.56961 9.83361C5.69988 7.91561 7.71775 6.61361 9.92134 6.57067C11.6097 6.51374 13.1124 7.72987 14.1428 7.72987C15.1303 7.72987 16.9764 6.57067 19.0652 6.57067C19.9668 6.57161 22.3711 6.84321 23.8597 9.13267ZM14 6.24214C13.6995 4.73947 14.5292 3.23681 15.302 2.27827C16.2895 1.11908 17.8491 0.332275 19.194 0.332275C19.2799 1.83494 18.7357 3.30867 17.7632 4.38201C16.8905 5.54121 15.3879 6.41387 14 6.24214Z"
          fill="#F3F5FF"/>
</svg>
